<?xml version="1.0" standalone="no"?>
<!DOCTYPE svg PUBLIC "-//W3C//DTD SVG 20010904//EN"
 "http://www.w3.org/TR/2001/REC-SVG-20010904/DTD/svg10.dtd">
<svg version="1.0" xmlns="http://www.w3.org/2000/svg"
 width="260.000000pt" height="260.000000pt" viewBox="0 0 260.000000 260.000000"
 preserveAspectRatio="xMidYMid meet">
<metadata>
Created by potrace 1.11, written by Peter Selinger 2001-2013
</metadata>
<g transform="translate(0.000000,260.000000) scale(0.100000,-0.100000)"
fill="#000000" stroke="none">
<path d="M939 2456 c-151 -43 -300 -186 -379 -360 -46 -100 -69 -212 -85 -408
-16 -193 -26 -251 -53 -307 -34 -69 -45 -80 -87 -87 -164 -27 -277 -140 -239
-239 9 -21 56 -45 91 -45 41 0 120 40 185 94 l57 47 108 -42 c189 -72 243 -89
313 -95 161 -15 333 52 488 191 51 46 52 48 52 101 0 30 -1 54 -3 54 -1 0 -26
-22 -54 -48 -28 -27 -80 -64 -115 -83 -59 -32 -68 -34 -153 -33 -82 1 -103 6
-250 58 -123 43 -173 56 -217 56 l-58 0 54 67 c97 120 151 262 181 473 8 60
22 160 31 221 31 227 99 319 227 306 86 -8 131 -71 130 -182 -2 -176 -109
-291 -225 -241 -23 10 -33 -57 -16 -108 19 -58 57 -81 131 -80 106 0 197 66
256 185 99 199 46 408 -124 488 -61 29 -178 37 -246 17z"/>
<path d="M1990 1735 c-207 -46 -426 -224 -530 -430 -99 -197 -108 -440 -23
-598 64 -116 184 -186 302 -174 75 8 202 72 264 133 26 26 47 44 47 40 0 -4
-12 -46 -26 -94 l-26 -87 -78 -43 c-185 -103 -267 -231 -215 -332 35 -68 165
-77 281 -20 118 58 205 182 249 353 l22 89 69 38 c38 21 88 55 112 75 38 33
42 41 42 81 0 24 -4 44 -10 44 -5 0 -10 -4 -10 -10 0 -11 -114 -107 -159 -133
l-30 -17 19 68 c10 37 30 101 43 142 14 41 22 79 17 83 -4 5 -46 3 -94 -4
l-86 -12 -51 -69 c-101 -136 -211 -195 -322 -174 -53 10 -122 76 -148 144 -33
84 -31 244 5 365 52 174 120 293 225 389 136 126 306 130 369 8 78 -151 -97
-448 -215 -365 -12 8 -23 28 -25 43 -2 19 -9 28 -24 30 -32 5 -64 -41 -64 -90
0 -79 95 -136 209 -125 112 12 224 98 279 215 23 49 27 70 27 147 0 78 -4 97
-27 141 -69 131 -235 190 -418 149z m-20 -1318 c0 -25 -32 -122 -56 -169 -43
-85 -116 -115 -150 -63 -36 55 28 147 151 220 48 28 55 29 55 12z"/>
</g>
</svg>
